<svg width="11" height="11" viewBox="0 0 11 11" fill="none" xmlns="http://www.w3.org/2000/svg">
<g clip-path="url(#clip0)">
<path d="M9.5 7C9.35487 7 9 6.99781 9 7.15099V9.61329C8.99949 10.0726 9.12143 9.99957 8.68625 10H1.31375C0.87857 9.99957 1.00051 10.0726 1 9.61329V2.3866C1.00051 1.9274 0.87857 2.00054 1.31375 2H3.5C4 2 4 1.65318 4 1.5C4 1.34693 4 1 3.64668 1H1.31375C0 1 0 1 0 2.3866V9.6134C0 11 0 11 1.31375 11H8.68625C10 11 10 11 10 9.6134V7.15099C10 6.99781 9.64513 7 9.5 7Z" fill="#EE5B30"/>
<path d="M10.3179 0.402842C9.83649 -0.0786164 9.05592 -0.0786164 8.57447 0.402842L3.6869 5.29041C3.65341 5.3239 3.62922 5.36542 3.61659 5.41101L2.97386 7.7314C2.94743 7.82654 2.97429 7.92842 3.04407 7.9983C3.11395 8.06807 3.21582 8.09493 3.31096 8.06861L5.63135 7.42577C5.67694 7.41314 5.71846 7.38896 5.75196 7.35546L10.6394 2.46779C11.1201 1.98601 11.1201 1.20609 10.6394 0.724313L10.3179 0.402842ZM4.65426 5.53015L8.30532 1.87898L9.121 2.69465L5.46982 6.34582L4.65426 5.53015ZM4.02498 5.98589L4.99988 6.99169L3.6869 7.35546L4.02498 5.98589ZM10.252 2.0804L10.0423 2.29017L8.75209 1L8.96197 0.790234C9.22939 0.522805 9.45325 0.679749 9.72068 0.947178L10.0423 1.26865C10.3093 1.5364 10.519 1.81276 10.252 2.0804Z" fill="#EE5B30"/>
</g>
<defs>
<clipPath id="clip0">
<rect width="11" height="11" fill="white"/>
</clipPath>
</defs>
</svg>
