<svg width="13" height="11" viewBox="0 0 13 11" fill="none" xmlns="http://www.w3.org/2000/svg">
<path d="M8.39583 2.14634C8.99167 2.14634 9.47917 1.66341 9.47917 1.07317C9.47917 0.482927 8.99167 0 8.39583 0C7.8 0 7.3125 0.482927 7.3125 1.07317C7.3125 1.66341 7.8 2.14634 8.39583 2.14634ZM2.70833 5.63415C1.19167 5.63415 0 6.81463 0 8.31707C0 9.81951 1.19167 11 2.70833 11C4.225 11 5.41667 9.81951 5.41667 8.31707C5.41667 6.81463 4.225 5.63415 2.70833 5.63415ZM2.70833 10.1951C1.67917 10.1951 0.8125 9.33659 0.8125 8.31707C0.8125 7.29756 1.67917 6.43902 2.70833 6.43902C3.7375 6.43902 4.60417 7.29756 4.60417 8.31707C4.60417 9.33659 3.7375 10.1951 2.70833 10.1951ZM5.85 4.82927L7.15 3.54146L7.58333 3.97073C8.2875 4.66829 9.20833 5.09756 10.3458 5.09756V4.02439C9.53333 4.02439 8.88333 3.70244 8.39583 3.21951L7.36667 2.2C7.09583 1.98537 6.825 1.87805 6.5 1.87805C6.175 1.87805 5.90417 1.98537 5.74167 2.2L4.225 3.70244C4.00833 3.91707 3.9 4.18537 3.9 4.45366C3.9 4.77561 4.00833 5.0439 4.225 5.20488L5.95833 6.70732V9.39024H7.04167V6.06342L5.85 4.82927ZM10.2917 5.63415C8.775 5.63415 7.58333 6.81463 7.58333 8.31707C7.58333 9.81951 8.775 11 10.2917 11C11.8083 11 13 9.81951 13 8.31707C13 6.81463 11.8083 5.63415 10.2917 5.63415ZM10.2917 10.1951C9.2625 10.1951 8.39583 9.33659 8.39583 8.31707C8.39583 7.29756 9.2625 6.43902 10.2917 6.43902C11.3208 6.43902 12.1875 7.29756 12.1875 8.31707C12.1875 9.33659 11.3208 10.1951 10.2917 10.1951Z" fill="#FFF"/>
</svg>
