<svg width="13" height="13" viewBox="0 0 13 13" fill="none" xmlns="http://www.w3.org/2000/svg">
<g clip-path="url(#clip0)">
<path d="M7.94818 9.16602L5.52703 10.7802C5.42067 10.8509 5.35742 10.9695 5.35742 11.0971V13H11.4512V11.0703C11.4512 10.0203 10.5969 9.16602 9.54688 9.16602H7.94818ZM6.88086 11.832H6.11914V11.0703H6.88086V11.832Z" fill="white"/>
<path d="M4.5957 11.0971C4.5957 10.7144 4.78575 10.3588 5.10451 10.1464L6.57503 9.16602H3.45312C2.40315 9.16602 1.54883 10.0203 1.54883 11.0703V13H4.5957V11.0971Z" fill="white"/>
<path d="M3.83398 3.32582V3.80859H9.16602V3.32582C9.64656 2.96766 9.92773 2.44956 9.92773 1.9043C9.92773 0.854318 8.90269 0 7.64258 0C6.92562 0 6.11914 0.437988 6.11914 1.14258H5.35742C5.35742 0.733637 5.51624 0.356637 5.78058 0.0459316C5.64116 0.0241719 5.5021 0 5.35742 0C4.09731 0 3.07227 0.854318 3.07227 1.9043C3.07227 2.44956 3.35344 2.96766 3.83398 3.32582Z" fill="white"/>
<path d="M9.16602 4.57031H3.83398V5.73828C3.83398 7.20817 5.03011 8.4043 6.5 8.4043C7.96989 8.4043 9.16602 7.20817 9.16602 5.73828V4.57031Z" fill="white"/>
</g>
<defs>
<clipPath id="clip0">
<rect width="13" height="13" fill="white"/>
</clipPath>
</defs>
</svg>
