<svg width="14" height="10" viewBox="0 0 14 10" fill="none" xmlns="http://www.w3.org/2000/svg">
<path d="M9.66667 4.66667C10.5867 4.66667 11.3267 3.92 11.3267 3C11.3267 2.08 10.5867 1.33333 9.66667 1.33333C8.74667 1.33333 8 2.08 8 3C8 3.92 8.74667 4.66667 9.66667 4.66667ZM4.66667 4C5.77333 4 6.66 3.10667 6.66 2C6.66 0.893333 5.77333 0 4.66667 0C3.56 0 2.66667 0.893333 2.66667 2C2.66667 3.10667 3.56 4 4.66667 4ZM9.66667 6C8.44667 6 6 6.61333 6 7.83333V9.33333H13.3333V7.83333C13.3333 6.61333 10.8867 6 9.66667 6ZM4.66667 5.33333C3.11333 5.33333 0 6.11333 0 7.66667V9.33333H4.66667V7.83333C4.66667 7.26667 4.88667 6.27333 6.24667 5.52C5.66667 5.4 5.10667 5.33333 4.66667 5.33333Z" fill="#FFF"/>
</svg>
