<svg width="13" height="13" viewBox="0 0 13 13" fill="none" xmlns="http://www.w3.org/2000/svg">
<g clip-path="url(#clip0)">
<path d="M12.0716 6.44195C10.7588 5.1292 8.84102 5.28134 7.85514 6.41532C6.63375 5.12176 6.67135 4.51833 6.67135 3.67856C7.18327 4.02524 7.91241 4.23862 8.73387 4.23862C10.2548 4.23862 11.432 2.72761 11.4813 2.66329L11.6598 2.43073L11.4813 2.19818C11.432 2.13386 10.2548 0.622846 8.73387 0.622846C7.91241 0.622846 7.18327 0.836228 6.67135 1.18291V0.189972H5.90746V2.84067C5.91357 3.76824 5.63218 4.12653 5.0521 4.94708L3.66092 6.88865C1.93204 6.26317 0 7.61031 0 9.74066C0 11.3985 1.24686 12.7473 2.77941 12.7473H4.91045C6.09864 12.7473 7.1138 11.9366 7.51108 10.8014C8.2296 8.74647 6.73481 6.58312 4.7056 6.74221C5.24661 5.98715 5.79081 5.23482 6.01293 4.90494C6.24564 5.7614 7.43357 7.08569 7.4327 7.08772C8.79967 8.54236 8.80721 10.9614 7.38254 12.4393C8.46445 13.0226 9.82688 12.9379 10.7253 12.0403L12.2323 10.5334C13.3157 9.44944 13.2437 7.61428 12.0716 6.44195Z" fill="white"/>
</g>
<defs>
<clipPath id="clip0">
<rect width="13" height="13" fill="white"/>
</clipPath>
</defs>
</svg>
