<svg width="13" height="10" viewBox="0 0 13 10" fill="none" xmlns="http://www.w3.org/2000/svg">
<path d="M11.8182 0H1.18182C0.531818 0 0 0.529412 0 1.17647V8.82353C0 9.47059 0.531818 10 1.18182 10H11.8182C12.4682 10 13 9.47059 13 8.82353V1.17647C13 0.529412 12.4682 0 11.8182 0ZM1.18182 8.82353V1.17647H5.90909V8.82353H1.18182ZM11.8182 8.82353H7.09091V1.17647H11.8182V8.82353ZM7.68182 3.23529H11.2273V4.11765H7.68182V3.23529ZM7.68182 4.70588H11.2273V5.58824H7.68182V4.70588ZM7.68182 6.17647H11.2273V7.05882H7.68182V6.17647Z" fill="#EE5B30"/>
</svg>
