<svg width="13" height="13" viewBox="0 0 13 13" fill="none" xmlns="http://www.w3.org/2000/svg">
<g clip-path="url(#clip0)">
<path d="M6.50007 8.66667C6.38903 8.66667 6.28286 8.62117 6.20594 8.541L3.36219 5.56183C3.11574 5.30346 3.30044 4.875 3.65632 4.875H5.1459V4.19792C5.1459 1.88338 7.02928 0 9.34382 0C9.56807 0 9.75007 0.182 9.75007 0.40625C9.75007 0.6305 9.56807 0.8125 9.34382 0.8125C8.52211 0.8125 7.85424 1.48038 7.85424 2.30208V4.875H9.34382C9.69969 4.875 9.8844 5.30346 9.63794 5.56183L6.7942 8.541C6.71728 8.62117 6.61111 8.66667 6.50007 8.66667Z" fill="#EE5B30"/>
<path d="M11.375 9.75H1.625C0.729083 9.75 0 10.4791 0 11.375C0 12.2709 0.729083 13 1.625 13H11.375C12.2709 13 13 12.2709 13 11.375C13 10.4791 12.2709 9.75 11.375 9.75ZM11.375 12.1875H5.95833V10.5625H11.375C11.823 10.5625 12.1875 10.927 12.1875 11.375C12.1875 11.823 11.823 12.1875 11.375 12.1875Z" fill="#EE5B30"/>
</g>
<defs>
<clipPath id="clip0">
<rect width="13" height="13" fill="white"/>
</clipPath>
</defs>
</svg>
