<svg width="13" height="13" viewBox="0 0 13 13" fill="none" xmlns="http://www.w3.org/2000/svg">
<g clip-path="url(#clip0)">
<path d="M6.8252 6.00807H9.69865C10.6272 6.00807 11.4834 6.37751 12.1662 6.99722V5.15198H6.8252V6.00807Z" fill="white"/>
<path d="M7.31575 4.26099H12.2248C12.675 4.08299 13.0001 3.5837 13.0001 2.99686C13.0001 2.26134 12.4894 1.66296 11.8618 1.66296H7.27246C7.51464 2.03309 7.65901 2.49549 7.65901 2.99686C7.65903 3.46063 7.53335 3.89928 7.31575 4.26099Z" fill="white"/>
<path d="M6.0888 6.01571V4.28351C6.56911 4.12712 6.92263 3.61006 6.92263 2.99805C6.92263 2.26253 6.41202 1.66415 5.78439 1.66415H1.13824C0.510605 1.66412 0 2.26253 0 2.99802C0 3.61003 0.353539 4.12712 0.833853 4.28348V11.0662H2.27706C2.26759 10.9593 2.26266 10.8508 2.26266 10.7411C2.26263 8.2151 3.96033 6.14512 6.0888 6.01571Z" fill="white"/>
<path d="M10.0576 6.89394C9.81333 6.97964 9.63986 7.24601 9.63986 7.54508V8.33541H8.87957V7.54508C8.87957 7.30668 8.92718 7.07738 9.01228 6.87097H8.61083C8.31023 6.89356 8.07151 7.18718 8.07151 7.54508V8.33541H7.31121V7.54508C7.31121 7.30376 7.35836 7.07527 7.44198 6.87097H7.04248C6.74188 6.89356 6.50316 7.18718 6.50316 7.54508V8.33541H5.74286V7.54508C5.74286 7.31727 5.78491 7.10092 5.85989 6.90552C4.24702 7.15871 2.99902 8.78162 2.99902 10.7399C2.99902 11.9861 3.86418 13 4.92759 13H11.0715C12.1349 13 13 11.9861 13 10.7399C13.0001 8.74874 11.7098 7.10425 10.0576 6.89394Z" fill="white"/>
</g>
<defs>
<clipPath id="clip0">
<rect width="13" height="13" fill="white"/>
</clipPath>
</defs>
</svg>
