<svg width="10" height="10" viewBox="0 0 10 10" fill="none" xmlns="http://www.w3.org/2000/svg">
<path d="M8.82309 5.48958C8.84451 5.33333 8.85522 5.17188 8.85522 5C8.85522 4.83333 8.84451 4.66667 8.81773 4.51042L9.90469 3.6875C10.0011 3.61458 10.0278 3.47396 9.96894 3.36979L8.94089 1.64062C8.87663 1.52604 8.74277 1.48958 8.62497 1.52604L7.34525 2.02604C7.07753 1.82812 6.79375 1.66146 6.47783 1.53646L6.28507 0.213542C6.26365 0.0885416 6.15656 0 6.02806 0H3.97194C3.84344 0 3.7417 0.0885416 3.72028 0.213542L3.52752 1.53646C3.21161 1.66146 2.92247 1.83333 2.6601 2.02604L1.38038 1.52604C1.26258 1.48437 1.12872 1.52604 1.06447 1.64062L0.041765 3.36979C-0.0224886 3.47917 -0.00107077 3.61458 0.106019 3.6875L1.19297 4.51042C1.1662 4.66667 1.14478 4.83854 1.14478 5C1.14478 5.16146 1.15549 5.33333 1.18227 5.48958L0.0953096 6.3125C-0.00107076 6.38542 -0.027843 6.52604 0.0310561 6.63021L1.05911 8.35938C1.12337 8.47396 1.25723 8.51042 1.37503 8.47396L2.65474 7.97396C2.92247 8.17187 3.20625 8.33854 3.52217 8.46354L3.71493 9.78646C3.7417 9.91146 3.84344 10 3.97194 10H6.02806C6.15656 10 6.26365 9.91146 6.27972 9.78646L6.47248 8.46354C6.78839 8.33854 7.07753 8.17187 7.3399 7.97396L8.61962 8.47396C8.73742 8.51562 8.87128 8.47396 8.93553 8.35938L9.96359 6.63021C10.0278 6.51562 10.0011 6.38542 9.89934 6.3125L8.82309 5.48958ZM5 6.875C3.93982 6.875 3.07239 6.03125 3.07239 5C3.07239 3.96875 3.93982 3.125 5 3.125C6.06018 3.125 6.92761 3.96875 6.92761 5C6.92761 6.03125 6.06018 6.875 5 6.875Z" fill="#FFF"/>
</svg>
