<svg width="158" height="132" viewBox="0 0 158 132" fill="none" xmlns="http://www.w3.org/2000/svg">
<g filter="url(#filter0_d)">
<path d="M19.1139 93.7177C18.3364 93.7177 17.6668 93.5773 17.1052 93.2965C16.7597 93.1022 16.5869 92.8754 16.5869 92.6162C16.5869 92.357 16.6517 92.1518 16.7813 92.0006C16.9108 91.8278 17.0944 91.7414 17.332 91.7414C17.548 91.7414 17.8612 91.8278 18.2716 92.0006C18.7251 92.1734 19.0059 92.2598 19.1139 92.2598C19.5243 92.2598 19.8915 92.087 20.2154 91.7414C20.561 91.3743 20.831 90.8991 21.0254 90.3159C21.4142 89.236 21.6085 88.2641 21.6085 87.4001C21.6085 86.4714 21.4574 85.4994 21.155 84.4843C20.8742 83.4476 20.4854 82.4432 19.9887 81.4713L19.4703 80.4345C18.9303 79.3546 18.5091 78.5015 18.2068 77.8751C17.926 77.2488 17.6776 76.5684 17.4616 75.834C17.1376 74.7973 16.9756 73.793 16.9756 72.821C16.9756 72.0435 17.1052 71.3091 17.3644 70.618C17.6452 69.9268 18.0556 69.3436 18.5955 68.8685C19.1355 68.3501 19.8051 68.0909 20.6042 68.0909C20.993 68.0909 21.371 68.2097 21.7381 68.4473C22.1053 68.6633 22.3645 68.9441 22.5157 69.2897L21.9649 69.97C21.4034 69.97 20.9822 69.862 20.7014 69.646C20.3126 69.6892 19.9671 69.8836 19.6647 70.2292C19.3839 70.5532 19.1679 70.9311 19.0167 71.3631C18.8871 71.7735 18.8223 72.1839 18.8223 72.5942C18.8223 73.415 18.9303 74.2573 19.1463 75.1213C19.3839 75.9636 19.6863 76.7628 20.0534 77.5187L22.3213 82.0544C22.6885 82.832 22.9801 83.7067 23.1961 84.6787C23.412 85.6506 23.52 86.6226 23.52 87.5945C23.52 89.02 23.1745 90.3591 22.4833 91.6118C22.1161 92.2598 21.6409 92.7674 21.0578 93.1346C20.4746 93.5233 19.8267 93.7177 19.1139 93.7177ZM29.2428 93.2317C28.962 92.087 28.8217 90.4995 28.8217 88.4692L28.8864 85.5858C28.9296 84.7219 28.9512 83.7607 28.9512 82.7024C28.8217 82.4 28.7569 82.13 28.7569 81.8925V81.7953C28.9728 81.3849 29.0808 80.4561 29.0808 79.009L29.1132 77.5187C29.1348 77.0436 29.1456 76.5144 29.1456 75.9312C29.1456 74.6569 29.0592 73.6526 28.8864 72.9182C28.9512 72.6158 29.0592 72.3567 29.2104 72.1407C29.3616 71.9031 29.5452 71.7843 29.7612 71.7843H31.1867C31.7915 71.7843 32.3206 71.9247 32.7742 72.2055C33.2278 72.4647 33.5734 72.8426 33.8109 73.3394C34.2429 74.2249 34.4589 75.2725 34.4589 76.482C34.4589 77.3459 34.4481 78.0263 34.4265 78.5231C34.3833 79.1494 34.2753 79.7218 34.1025 80.2402C34.0377 80.5209 33.9405 80.7585 33.8109 80.9529C33.7029 81.1257 33.541 81.3417 33.325 81.6009C33.0226 81.9681 32.5258 82.3136 31.8347 82.6376C31.5539 82.7888 31.1867 82.9292 30.7331 83.0588V86.5254L30.7979 88.5988L30.8627 89.6032C30.9491 90.8127 30.9923 91.8386 30.9923 92.681C30.9923 92.9402 30.8843 93.1561 30.6683 93.3289C30.4523 93.5233 30.204 93.6205 29.9232 93.6205L29.2428 93.2317ZM30.7655 81.7305C32.0398 81.5361 32.677 79.711 32.677 76.2552C32.677 75.6289 32.6446 75.1429 32.5798 74.7973C32.515 74.5381 32.4286 74.3329 32.3206 74.1817C32.2126 74.009 32.0506 73.8686 31.8347 73.7606C31.5971 73.631 31.3379 73.5662 31.0571 73.5662C31.0571 73.5446 30.9383 73.5338 30.7007 73.5338V75.3805C30.7007 76.6548 30.7115 77.7887 30.7331 78.7823C30.7331 79.9054 30.7439 80.6397 30.7655 80.9853V81.6657V81.7305ZM42.7285 93.6205C42.1669 93.6205 41.6485 93.4369 41.1734 93.0698C40.6982 92.7242 40.3094 92.249 40.007 91.6442C39.3807 90.3267 38.9919 88.8904 38.8407 87.3353C38.6463 85.8666 38.5491 84.4519 38.5491 83.0912C38.5491 82.832 38.5599 82.616 38.5815 82.4432V81.8601C38.5815 81.7521 38.5707 81.6981 38.5491 81.6981V81.1149L38.5815 78.8471C38.6031 78.1559 38.6895 77.0544 38.8407 75.5425C38.9487 74.5057 39.1971 73.5014 39.5859 72.5294C39.7371 72.0975 39.9315 71.7735 40.169 71.5575C40.4066 71.3199 40.6766 71.2011 40.979 71.2011C41.8429 71.2011 42.6205 71.3631 43.3116 71.6871C44.0028 71.9895 44.586 72.4215 45.0611 72.983C45.4931 73.523 45.8603 74.1925 46.1627 74.9917C46.465 75.7692 46.681 76.6008 46.8106 77.4863C46.9402 78.3935 47.005 79.3546 47.005 80.3698V80.6289C47.005 81.2985 47.0158 81.9033 47.0374 82.4432L47.0698 84.2899C47.0698 90.5103 45.6227 93.6205 42.7285 93.6205ZM42.5989 92.2598C42.9877 92.2598 43.344 92.1086 43.668 91.8062C43.992 91.4823 44.2404 91.0503 44.4132 90.5103C44.8235 89.4088 45.0719 88.2209 45.1583 86.9465C45.2663 85.845 45.3203 84.8947 45.3203 84.0955C45.3203 83.1236 45.2447 81.8493 45.0935 80.2726C44.9639 78.6095 44.8991 77.3675 44.8991 76.5468V75.9636C44.8559 75.1429 44.5752 74.4301 44.0568 73.8254C43.56 73.2206 42.9445 72.9182 42.2101 72.9182C41.4758 72.9182 40.9898 73.3394 40.7522 74.1817C40.5362 74.8513 40.4282 75.7152 40.4282 76.7736C40.4282 77.184 40.439 77.5295 40.4606 77.8103V78.6851L40.3958 80.1754C40.3526 80.6289 40.331 81.1257 40.331 81.6657C40.331 82.832 40.3634 83.9875 40.4282 85.1323C40.5146 86.7522 40.7306 88.3289 41.0762 89.8624C41.4218 91.4607 41.9293 92.2598 42.5989 92.2598ZM55.699 93.6205C55.1375 93.6205 54.6191 93.4369 54.1439 93.0698C53.6688 92.7242 53.28 92.249 52.9776 91.6442C52.3513 90.3267 51.9625 88.8904 51.8113 87.3353C51.6169 85.8666 51.5197 84.4519 51.5197 83.0912C51.5197 82.832 51.5305 82.616 51.5521 82.4432V81.8601C51.5521 81.7521 51.5413 81.6981 51.5197 81.6981V81.1149L51.5521 78.8471C51.5737 78.1559 51.6601 77.0544 51.8113 75.5425C51.9193 74.5057 52.1677 73.5014 52.5564 72.5294C52.7076 72.0975 52.902 71.7735 53.1396 71.5575C53.3772 71.3199 53.6472 71.2011 53.9496 71.2011C54.8135 71.2011 55.5911 71.3631 56.2822 71.6871C56.9734 71.9895 57.5565 72.4215 58.0317 72.983C58.4637 73.523 58.8309 74.1925 59.1332 74.9917C59.4356 75.7692 59.6516 76.6008 59.7812 77.4863C59.9108 78.3935 59.9756 79.3546 59.9756 80.3698V80.6289C59.9756 81.2985 59.9864 81.9033 60.008 82.4432L60.0404 84.2899C60.0404 90.5103 58.5933 93.6205 55.699 93.6205ZM55.5695 92.2598C55.9582 92.2598 56.3146 92.1086 56.6386 91.8062C56.9626 91.4823 57.211 91.0503 57.3837 90.5103C57.7941 89.4088 58.0425 88.2209 58.1289 86.9465C58.2369 85.845 58.2909 84.8947 58.2909 84.0955C58.2909 83.1236 58.2153 81.8493 58.0641 80.2726C57.9345 78.6095 57.8697 77.3675 57.8697 76.5468V75.9636C57.8265 75.1429 57.5457 74.4301 57.0274 73.8254C56.5306 73.2206 55.915 72.9182 55.1807 72.9182C54.4463 72.9182 53.9604 73.3394 53.7228 74.1817C53.5068 74.8513 53.3988 75.7152 53.3988 76.7736C53.3988 77.184 53.4096 77.5295 53.4312 77.8103V78.6851L53.3664 80.1754C53.3232 80.6289 53.3016 81.1257 53.3016 81.6657C53.3016 82.832 53.334 83.9875 53.3988 85.1323C53.4852 86.7522 53.7012 88.3289 54.0468 89.8624C54.3923 91.4607 54.8999 92.2598 55.5695 92.2598ZM73.7237 93.1022C73.4645 93.1022 73.2701 93.0374 73.1405 92.9078C73.011 92.7566 72.9138 92.5082 72.849 92.1626L72.6546 91.5471V91.4823V91.3851C72.6546 90.6723 71.9094 88.2425 70.4191 84.0955C68.9504 79.9486 67.7949 76.8816 66.9525 74.8945V91.1907L67.0821 91.4175C67.1037 91.4607 67.1469 91.5363 67.2117 91.6442C67.2765 91.7522 67.3089 91.8602 67.3089 91.9682C67.3089 92.249 67.2117 92.4866 67.0173 92.681C66.8229 92.8754 66.5854 92.9726 66.3046 92.9726C65.6134 92.9726 65.2678 92.3138 65.2678 90.9963L65.2354 85.4562C65.2138 83.7931 65.203 81.9357 65.203 79.8838C65.203 79.1926 65.2354 78.1883 65.3002 76.8708C65.365 75.5101 65.3974 74.5057 65.3974 73.8578C65.3974 72.8426 65.7862 72.0435 66.5638 71.4603V71.6547C66.6933 71.6115 66.7797 71.5899 66.8229 71.5899C67.3197 71.5899 67.9461 72.4539 68.702 74.1817C69.3068 75.5641 69.8467 77.022 70.3219 78.5555C70.8187 80.089 71.4666 82.2704 72.2658 85.0999L72.5898 86.2662C73.0865 88.0157 73.4645 89.2684 73.7237 90.0243C74.1557 85.3806 74.3717 79.8946 74.3717 73.5662V73.145C74.3501 73.0154 74.3393 72.875 74.3393 72.7238C74.3393 72.0759 74.5985 71.7519 75.1168 71.7519C75.4192 71.7519 75.646 71.8707 75.7972 72.1083C75.97 72.3459 76.0564 72.6482 76.0564 73.0154V75.4453C76.0132 78.7715 75.8836 82.3784 75.6676 86.2662C75.4516 90.1539 75.1924 92.3462 74.89 92.843C74.2637 93.0158 73.8749 93.1022 73.7237 93.1022ZM85.7924 93.1993C84.9933 93.1993 84.2373 92.9294 83.5246 92.3894C82.8118 91.8494 82.2611 91.1583 81.8723 90.3159C81.5051 89.4736 81.3215 88.6636 81.3215 87.8861C81.3215 86.9141 81.4079 85.9314 81.5807 84.9379C81.6023 84.6139 81.7211 84.1603 81.9371 83.5772C82.0019 83.3396 82.0667 83.1236 82.1315 82.9292C82.2179 82.7348 82.2827 82.562 82.3259 82.4108C82.4771 82.0652 82.6606 81.6441 82.8766 81.1473C83.1142 80.6505 83.3194 80.251 83.4922 79.9486C83.557 79.7542 83.7946 79.279 84.2049 78.5231C84.2049 77.9399 84.1617 77.2056 84.0754 76.32C84.0106 75.3481 83.9782 74.6029 83.9782 74.0845V71.3955C83.9782 70.6396 84.1617 70.0672 84.5289 69.6784C84.8961 69.2681 85.3821 69.0629 85.9868 69.0629C86.8292 69.0629 87.5959 69.3544 88.2871 69.9376C88.9782 70.5208 89.3238 71.2011 89.3238 71.9787C89.3238 73.253 89.1078 74.4085 88.6759 75.4453C88.2655 76.4604 87.6067 77.4971 86.6996 78.5555C86.6564 78.5987 86.5592 78.7499 86.408 79.009C86.0408 79.5274 85.8572 79.8946 85.8572 80.1106C85.8572 80.7153 86.0516 81.7197 86.4404 83.1236C86.8292 84.5275 87.2828 85.8774 87.8011 87.1733C88.3195 88.4692 88.7623 89.3116 89.1294 89.7004C89.799 88.2101 90.1338 86.3094 90.1338 83.9983V83.8363C89.961 83.8363 89.8638 83.8039 89.8422 83.7391L89.745 83.6095L89.6802 83.4476C89.6586 83.4044 89.637 83.372 89.6154 83.3504C89.6154 83.3288 89.6046 83.3072 89.583 83.2856V82.4756C90.1662 82.4756 90.8357 82.4432 91.5917 82.3784C92.3692 82.292 92.92 82.184 93.244 82.0544C93.8703 82.184 94.1835 82.4648 94.1835 82.8968C94.1835 83.1992 94.0107 83.426 93.6652 83.5772C93.3412 83.7283 92.9524 83.8039 92.4988 83.8039L92.434 83.7715H92.4016H91.5917C91.5917 87.2057 91.1489 89.5168 90.2634 90.7047C90.9113 91.3743 91.5917 91.709 92.3044 91.709L92.9848 91.6442L93.6328 91.6118L94.2159 92.0978C94.2159 92.5082 94.0755 92.789 93.7947 92.9402C93.5356 93.0914 93.1252 93.1669 92.5636 93.1669C91.5701 93.1669 90.5333 92.7674 89.4534 91.9682C88.2007 92.789 86.9804 93.1993 85.7924 93.1993ZM85.5009 77.7779C86.1056 76.9788 86.6456 76.1256 87.1208 75.2185C87.6175 74.2897 87.8659 73.5662 87.8659 73.0478C87.8659 72.5942 87.6823 72.0651 87.3152 71.4603C86.9696 70.8556 86.624 70.5532 86.2784 70.5532C85.976 70.5532 85.6953 70.8124 85.4361 71.3307V73.0478L85.4685 75.2185C85.4901 75.8664 85.5009 76.6008 85.5009 77.4215V77.7779ZM86.084 91.8386C86.4296 91.8386 86.8508 91.7522 87.3475 91.5794C87.8659 91.3851 88.2331 91.1799 88.4491 90.9639C86.462 88.1345 85.1553 84.8083 84.5289 80.9853C83.3842 82.8212 82.8118 84.9379 82.8118 87.3353C82.8118 88.4368 83.0602 89.4304 83.557 90.3159C83.8162 90.7911 84.1617 91.1691 84.5937 91.4499C85.0257 91.709 85.5225 91.8386 86.084 91.8386ZM100.32 93.0374C99.6933 93.0374 99.3801 92.3462 99.3801 90.9639C99.3801 88.4584 99.2613 84.4519 99.0237 78.9442C98.8077 73.4366 98.6026 70.5316 98.4082 70.2292C98.4082 69.6244 98.6458 69.1601 99.1209 68.8361C99.2937 68.7281 99.5313 68.6417 99.8337 68.5769C100.158 68.4905 100.449 68.4473 100.708 68.4473C100.838 68.4257 101.108 68.4149 101.518 68.4149C102.015 68.4149 102.372 68.5013 102.588 68.6741C102.803 68.8253 102.911 69.1061 102.911 69.5164C102.911 69.754 102.825 69.9376 102.652 70.0672C102.48 70.1752 102.264 70.2292 102.004 70.2292L101.68 70.1968H101.227C100.622 70.1968 100.32 70.3156 100.32 70.5532C100.32 71.6763 100.395 73.145 100.546 74.9593C100.676 76.4712 100.762 77.9075 100.806 79.2682C100.957 79.225 101.238 79.1602 101.648 79.0738C102.08 78.9658 102.404 78.9118 102.62 78.9118C102.857 78.9118 103.063 79.0198 103.235 79.2358C103.408 79.4302 103.495 79.657 103.495 79.9162C103.495 80.2186 103.354 80.4345 103.073 80.5641C103.03 80.5857 102.922 80.6397 102.749 80.7261C102.598 80.7909 102.393 80.8341 102.134 80.8557C101.94 80.8773 101.616 80.9097 101.162 80.9529H100.806C100.806 82.2488 100.914 84.0091 101.13 86.2338C101.324 88.5664 101.421 90.3267 101.421 91.5147L101.389 91.6442L101.356 91.709C101.378 91.7954 101.389 91.9358 101.389 92.1302C101.389 92.411 101.292 92.6378 101.097 92.8106C100.903 92.9618 100.644 93.0374 100.32 93.0374ZM112.296 93.6205C111.734 93.6205 111.216 93.4369 110.74 93.0698C110.265 92.7242 109.876 92.249 109.574 91.6442C108.948 90.3267 108.559 88.8904 108.408 87.3353C108.213 85.8666 108.116 84.4519 108.116 83.0912C108.116 82.832 108.127 82.616 108.149 82.4432V81.8601C108.149 81.7521 108.138 81.6981 108.116 81.6981V81.1149L108.149 78.8471C108.17 78.1559 108.257 77.0544 108.408 75.5425C108.516 74.5057 108.764 73.5014 109.153 72.5294C109.304 72.0975 109.498 71.7735 109.736 71.5575C109.974 71.3199 110.244 71.2011 110.546 71.2011C111.41 71.2011 112.188 71.3631 112.879 71.6871C113.57 71.9895 114.153 72.4215 114.628 72.983C115.06 73.523 115.427 74.1925 115.73 74.9917C116.032 75.7692 116.248 76.6008 116.378 77.4863C116.507 78.3935 116.572 79.3546 116.572 80.3698V80.6289C116.572 81.2985 116.583 81.9033 116.604 82.4432L116.637 84.2899C116.637 90.5103 115.19 93.6205 112.296 93.6205ZM112.166 92.2598C112.555 92.2598 112.911 92.1086 113.235 91.8062C113.559 91.4823 113.807 91.0503 113.98 90.5103C114.391 89.4088 114.639 88.2209 114.725 86.9465C114.833 85.845 114.887 84.8947 114.887 84.0955C114.887 83.1236 114.812 81.8493 114.661 80.2726C114.531 78.6095 114.466 77.3675 114.466 76.5468V75.9636C114.423 75.1429 114.142 74.4301 113.624 73.8254C113.127 73.2206 112.511 72.9182 111.777 72.9182C111.043 72.9182 110.557 73.3394 110.319 74.1817C110.103 74.8513 109.995 75.7152 109.995 76.7736C109.995 77.184 110.006 77.5295 110.028 77.8103V78.6851L109.963 80.1754C109.92 80.6289 109.898 81.1257 109.898 81.6657C109.898 82.832 109.93 83.9875 109.995 85.1323C110.082 86.7522 110.298 88.3289 110.643 89.8624C110.989 91.4607 111.496 92.2598 112.166 92.2598ZM127.145 93.5557C126.67 93.5557 126.238 93.0374 125.849 92.0006C125.396 90.8775 125.061 89.722 124.845 88.534L124.618 87.4325C123.992 84.3439 123.592 82.5836 123.419 82.1516H123.031C123.031 82.778 123.02 83.3504 122.998 83.8687V85.6506C122.998 88.5448 123.203 90.8019 123.614 92.4218L123.257 93.2965H122.35L121.929 92.8106L121.961 90.6399C121.961 88.696 121.864 85.7478 121.67 81.7953C121.497 77.5835 121.411 74.6353 121.411 72.9506C121.411 71.9139 121.767 71.3955 122.48 71.3955C123.646 71.3955 124.597 71.6979 125.331 72.3027C126.087 72.9074 126.465 73.7498 126.465 74.8297V77.0976C126.465 77.4215 126.411 77.7995 126.303 78.2315C126.195 78.6419 126.076 78.9766 125.946 79.2358L125.331 80.4022L124.813 81.3741L124.974 82.1516L125.428 84.4519C125.73 86.115 126.022 87.4649 126.303 88.5016C126.584 89.5384 126.929 90.4779 127.34 91.3203L127.534 91.709C127.75 92.141 127.858 92.4866 127.858 92.7458C127.858 92.9618 127.793 93.1454 127.664 93.2965C127.534 93.4693 127.361 93.5557 127.145 93.5557ZM123.16 80.5641C123.635 80.3266 124.035 79.6786 124.359 78.6203C124.705 77.5403 124.877 76.5468 124.877 75.6397C124.877 74.9485 124.791 74.3005 124.618 73.6958C124.51 73.3502 124.327 73.091 124.067 72.9182C123.83 72.7238 123.527 72.6266 123.16 72.6266L123.095 72.7886L123.031 73.0802L123.095 76.9032C123.139 78.0263 123.16 79.2466 123.16 80.5641ZM139.972 93.5557C139.475 93.5557 138.946 93.0158 138.385 91.9358C137.542 90.3159 136.711 87.6485 135.89 83.9335C135.652 82.9184 135.458 81.9789 135.307 81.1149C134.529 82.67 134.141 84.5491 134.141 86.7522V92.7458C134.141 93.2425 133.925 93.4909 133.493 93.4909C133.169 93.4909 132.899 93.3937 132.683 93.1993C132.488 93.0266 132.391 92.7782 132.391 92.4542V82.6376C132.391 81.6873 132.499 79.9378 132.715 77.3891C132.931 75.1645 133.039 73.415 133.039 72.1407C133.212 71.7303 133.525 71.5251 133.979 71.5251C134.259 71.5251 134.497 71.6223 134.691 71.8167C134.886 72.0111 134.983 72.2487 134.983 72.5294V72.6266C134.702 73.1018 134.562 75.0673 134.562 78.5231V79.6894L135.76 77.3243C136.495 75.7908 137.186 74.4733 137.834 73.3718C138.439 72.2919 138.881 71.7519 139.162 71.7519C139.508 71.7519 139.799 71.8275 140.037 71.9787C140.296 72.1299 140.426 72.3459 140.426 72.6266L139.648 73.9226C138.028 76.536 137.121 78.0479 136.927 78.4583C136.927 78.8255 136.916 79.1494 136.894 79.4302L136.862 80.4022C136.862 81.3309 137.229 83.0696 137.964 85.6182C138.719 88.1453 139.346 89.8192 139.843 90.6399L140.264 91.2231C140.674 91.7846 140.879 92.2814 140.879 92.7134C140.879 92.951 140.782 93.1454 140.588 93.2965C140.415 93.4693 140.21 93.5557 139.972 93.5557Z" fill="white"/>
</g>
<g filter="url(#filter1_d)">
<path fill-rule="evenodd" clip-rule="evenodd" d="M99.7496 38.5025C99.7496 47.5297 94.1867 55.2576 86.3021 58.4454L86.2368 55.4781C92.6005 52.4777 97.0045 46.0044 97.0045 38.5024C97.0045 28.143 88.6065 19.745 78.247 19.745C67.8876 19.745 59.4896 28.143 59.4896 38.5024C59.4896 46.7904 64.8648 53.8229 72.3193 56.304L72.3084 57.458L72.2386 59.1542C63.2872 56.5543 56.7446 48.2924 56.7446 38.5025C56.7446 26.627 66.3716 17 78.2471 17C90.1226 17 99.7496 26.627 99.7496 38.5025ZM74.3078 59.6449C75.5849 59.8813 76.9016 60.0049 78.2471 60.0049C80.1713 60.0049 82.0365 59.7522 83.8113 59.2781L83.9005 56.3929C82.1165 56.9562 80.2172 57.2599 78.247 57.2599C76.8653 57.2599 75.5184 57.1105 74.2217 56.827L74.1962 57.5384L74.3078 59.6449ZM74.2722 55.4149C75.5487 55.7138 76.8794 55.8718 78.247 55.8718C80.2433 55.8718 82.161 55.535 83.9462 54.9152L84.0515 51.51C84.0515 51.51 84.171 50.8014 83.4079 50.1906C83.4079 50.1906 82.5747 49.5326 82.5747 49.5314C82.4785 49.4551 82.3782 49.3901 82.2791 49.3258C82.0594 49.1835 81.8452 49.0446 81.6932 48.7944C81.5633 48.5798 81.4967 48.3168 81.4679 48.0409C81.4254 47.628 81.4657 47.1854 81.4984 46.8258L81.5036 46.7686L82.1541 39.6275L82.608 35.1148C82.608 35.1148 83.1068 33.4345 83.4114 35.1585L83.1735 44.7605C83.173 44.7639 83.1721 44.767 83.1712 44.77C83.17 44.7741 83.1689 44.7781 83.1689 44.7829C83.1689 44.935 83.2861 45.0576 83.4298 45.0576C83.435 45.0576 83.4398 45.0561 83.4447 45.0546C83.4484 45.0534 83.4522 45.0522 83.4562 45.0517C83.4941 45.0553 83.532 45.0435 83.57 45.0081C83.6412 44.9586 83.6906 44.8784 83.6906 44.7829V44.7805C83.6918 44.7746 83.6941 44.7699 83.6964 44.764L84.0538 35.2068C84.0538 35.2068 84.0423 34.4109 84.4791 34.2505C84.4791 34.2505 84.8997 34.4109 84.8641 35.1832L85.0296 44.7392C85.0296 44.7392 85.0304 44.7401 85.0315 44.7417C85.0318 44.7421 85.0321 44.7426 85.0324 44.7431C85.033 44.744 85.0336 44.7451 85.0342 44.7463C85.0502 44.9197 85.1905 45.0553 85.3628 45.0553C85.5444 45.0553 85.6927 44.9043 85.695 44.718L85.6973 44.7157L85.7685 35.1832C85.7685 35.1832 86.1317 32.9864 86.6006 35.2304L86.7673 44.7145C86.7673 44.7145 86.7696 44.7215 86.7719 44.731C86.7719 44.7333 86.7716 44.7353 86.7713 44.7372C86.7712 44.738 86.7711 44.7387 86.771 44.7395C86.7708 44.7406 86.7707 44.7417 86.7707 44.7428C86.7707 44.9232 86.9144 45.0706 87.0902 45.0706C87.2592 45.0706 87.3948 44.9373 87.4074 44.7687C87.4085 44.7682 87.4093 44.7676 87.41 44.767C87.4108 44.7662 87.4114 44.7653 87.412 44.764L87.2212 35.2563C87.2212 35.2563 87.535 33.4015 88.0809 35.2103L88.143 36.2044L88.1948 37.0384C88.2285 37.5771 88.2621 38.1157 88.2947 38.6547L88.3212 39.0906L88.3212 39.0906C88.3743 39.9618 88.4273 40.8329 88.4854 41.704C88.5487 42.645 88.6096 43.5895 88.6647 44.5317C88.6747 44.704 88.6856 44.8761 88.6966 45.048L88.6966 45.0482V45.0482C88.7348 45.6493 88.7729 46.249 88.7693 46.8523C88.7682 47.0609 88.7607 47.2731 88.7532 47.4845L88.7532 47.4847C88.7451 47.7118 88.7371 47.9379 88.7371 48.1577C88.7371 48.1577 88.6739 49.0904 87.7212 49.6033L87.181 49.9641C87.181 49.9641 86.3007 50.4264 86.149 51.4853L86.2031 53.9466C91.794 51.0606 95.6164 45.2279 95.6164 38.5024C95.6164 28.9096 87.8399 21.1331 78.247 21.1331C68.6542 21.1331 60.8777 28.9096 60.8777 38.5024C60.8777 46.0187 65.6518 52.4199 72.3331 54.8391L72.3571 52.3081C72.3571 52.3081 72.416 51.7617 71.8127 51.0364C71.6796 50.95 71.5301 50.862 71.3731 50.7696C70.8897 50.4852 70.3355 50.1592 69.971 49.7096C68.9016 48.392 67.7246 46.0666 67.7246 42.9252C67.722 38.5982 69.9185 34.2207 72.9513 34.2207C75.9842 34.2207 78.7045 38.5982 78.7045 42.9241C78.7045 42.9802 78.7045 43.0359 78.7045 43.0911C78.7051 46.3304 78.7053 47.874 76.7987 49.5386C76.184 50.0757 75.5218 50.6197 74.9224 51.0352C74.665 51.3382 74.4076 51.7698 74.3832 52.3115L74.2722 55.4149ZM69.4711 27.6196C70.4097 27.4694 71.2925 28.1086 71.4427 29.0472C71.5929 29.9859 70.9537 30.8686 70.0151 31.0188C69.0764 31.169 68.1937 30.5299 68.0435 29.5912C67.8933 28.6525 68.5324 27.7698 69.4711 27.6196ZM73.2555 25.8519C73.1553 25.2262 72.5668 24.8 71.9411 24.9002C71.3153 25.0003 70.8892 25.5888 70.9893 26.2146C71.0895 26.8403 71.678 27.2664 72.3037 27.1663C72.9295 27.0662 73.3556 26.4777 73.2555 25.8519ZM74.7431 24.8096C75.056 24.7595 75.3502 24.9725 75.4003 25.2854C75.4503 25.5983 75.2373 25.8925 74.9244 25.9426C74.6115 25.9927 74.3173 25.7796 74.2672 25.4668C74.2171 25.1539 74.4302 24.8596 74.7431 24.8096ZM69.9103 26.2004C69.8602 25.8875 69.566 25.6745 69.2531 25.7245C68.9402 25.7746 68.7271 26.0688 68.7772 26.3817C68.8273 26.6946 69.1215 26.9077 69.4344 26.8576C69.7473 26.8075 69.9603 26.5133 69.9103 26.2004ZM73.8282 27.5546C74.141 27.5045 74.4353 27.7175 74.4853 28.0304C74.5354 28.3433 74.3224 28.6375 74.0095 28.6876C73.6966 28.7377 73.4024 28.5246 73.3523 28.2118C73.3022 27.8989 73.5153 27.6046 73.8282 27.5546Z" fill="white"/>
</g>
<g filter="url(#filter2_d)">
<path d="M50.7303 114.986C50.59 114.986 50.4847 114.96 50.4146 114.907C50.3532 114.855 50.3225 114.767 50.3225 114.644V112.921C50.2085 112.842 49.9936 112.772 49.6779 112.71C49.3622 112.649 49.0641 112.61 48.7834 112.592C48.687 112.776 48.6168 113 48.573 113.263L48.5203 113.526C48.5116 113.587 48.4853 113.723 48.4414 113.934C48.3976 114.144 48.3493 114.328 48.2967 114.486C48.2441 114.635 48.1915 114.754 48.1389 114.841C47.8056 114.841 47.6127 114.754 47.5601 114.578C47.6565 114.438 47.7662 114.026 47.8889 113.342L48.323 110.935C48.516 109.795 48.6914 108.821 48.8492 108.014C49.0158 107.207 49.1912 106.532 49.3754 105.989C49.5771 105.383 49.77 105.081 49.9542 105.081C50.1383 105.081 50.2787 105.116 50.3751 105.186C50.3751 105.537 50.4584 106.383 50.6251 107.725C50.8005 109.04 50.8881 109.939 50.8881 110.422C50.8881 110.886 50.9364 111.553 51.0328 112.421C51.1205 113.307 51.1644 114.013 51.1644 114.539C51.1644 114.837 51.0197 114.986 50.7303 114.986ZM50.0463 112.158C50.1164 112.158 50.2041 112.145 50.3094 112.118C50.283 111.733 50.2392 111.255 50.1778 110.685C49.9761 108.703 49.8753 107.488 49.8753 107.041V106.936C49.7876 107.023 49.6648 107.422 49.5069 108.133C49.3578 108.834 49.2175 109.588 49.086 110.395C48.9544 111.202 48.8843 111.737 48.8755 112C49.2438 112.105 49.6341 112.158 50.0463 112.158ZM54.4546 115.065C54.2266 115.065 54.1126 114.491 54.1126 113.342L54.1389 111.263C54.1477 110.65 54.1521 109.961 54.1521 109.198C54.1521 108.918 54.1258 108.483 54.0732 107.896C54.0293 107.256 54.0074 106.865 54.0074 106.725C54.0074 106.611 54.0556 106.51 54.1521 106.423C54.2486 106.335 54.3538 106.291 54.4678 106.291C54.7747 106.291 55.0685 106.361 55.3492 106.502C55.6386 106.633 55.8929 106.822 56.1121 107.067C56.5769 107.602 56.8838 108.19 57.0329 108.83C57.1119 109.154 57.1513 109.474 57.1513 109.79C57.1513 109.904 57.1469 110.009 57.1382 110.106L57.125 110.461V111.185C57.125 111.746 57.1075 112.189 57.0724 112.513C57.0198 112.952 56.9189 113.342 56.7698 113.684C56.5944 114.052 56.3401 114.381 56.0069 114.67C55.849 114.802 55.6473 114.934 55.4018 115.065H54.4546ZM55.0334 114.394C55.2088 114.394 55.3711 114.35 55.5202 114.263C55.6692 114.166 55.7964 114.039 55.9016 113.881C55.9893 113.741 56.0683 113.565 56.1384 113.355C56.2173 113.136 56.2744 112.925 56.3094 112.724C56.3884 112.329 56.4366 111.926 56.4541 111.513C56.4629 111.408 56.4673 111.255 56.4673 111.053C56.4673 108.405 55.9543 107.023 54.9282 106.909C54.8668 107.304 54.8361 107.76 54.8361 108.277C54.8361 108.83 54.8712 109.795 54.9414 111.171C55.0028 112.39 55.0334 113.359 55.0334 114.079V114.394ZM65.1784 115.67C64.9066 115.67 64.7706 115.398 64.7706 114.855V114.013V113.171C64.7706 112.732 64.7399 112.158 64.6785 111.448C64.6084 110.65 64.5733 110.101 64.5733 109.803L64.5996 108.988C64.6172 108.751 64.6259 108.483 64.6259 108.185C64.5908 108.299 64.4461 108.904 64.1918 110.001C63.9375 111.062 63.6744 112.044 63.4026 112.947C63.1395 113.815 62.9246 114.25 62.758 114.25C62.5914 114.25 62.4554 114.201 62.3502 114.105C62.2537 114 62.2055 113.859 62.2055 113.684C62.2055 113.298 62.0476 112.478 61.7319 111.224C61.425 109.97 61.1444 108.944 60.8901 108.146L60.8111 109.632C60.741 110.886 60.6927 111.93 60.6664 112.763C60.6489 113.57 60.6401 114.122 60.6401 114.421C60.6401 114.491 60.6445 114.556 60.6533 114.618V114.802C60.6533 114.951 60.6226 115.061 60.5612 115.131C60.4998 115.21 60.3858 115.249 60.2192 115.249C60.1315 115.249 60.0482 115.214 59.9692 115.144C59.8903 115.083 59.8509 115.012 59.8509 114.934C59.8509 114.039 59.9166 112.697 60.0482 110.908C60.1797 109.119 60.2455 107.778 60.2455 106.883C60.1929 106.804 60.1666 106.721 60.1666 106.633C60.1666 106.528 60.2148 106.449 60.3113 106.396C60.4165 106.335 60.5393 106.304 60.6796 106.304C60.7936 106.304 61.0041 106.716 61.311 107.541C61.6179 108.365 61.9249 109.299 62.2318 110.343C62.5387 111.386 62.7361 112.14 62.8238 112.605C62.8939 112.368 62.9509 112.149 62.9948 111.947L63.0737 111.632C63.3543 110.404 63.635 109.295 63.9156 108.304C64.0822 107.699 64.2444 107.225 64.4023 106.883C64.5602 106.515 64.7048 106.331 64.8364 106.331C64.9592 106.331 65.0688 106.366 65.1653 106.436C65.2705 106.497 65.3231 106.58 65.3231 106.686C65.3231 107.317 65.3494 108.264 65.402 109.527C65.4634 110.702 65.4941 111.614 65.4941 112.263L65.481 112.96L65.4547 113.658C65.4547 113.763 65.4678 113.921 65.4941 114.131L65.5336 114.592C65.5424 114.67 65.5467 114.732 65.5467 114.776C65.5555 114.82 65.5599 114.846 65.5599 114.855C65.6037 114.969 65.6257 115.052 65.6257 115.105C65.6257 115.254 65.5818 115.385 65.4941 115.499C65.4064 115.613 65.3012 115.67 65.1784 115.67ZM69.2045 114.973C68.4415 114.973 68.0601 114.841 68.0601 114.578C68.0601 114.368 68.196 114.263 68.4678 114.263H68.6125L68.7441 114.276C68.8142 114.276 68.8625 114.254 68.8888 114.21C68.9151 114.166 68.9283 114.087 68.9283 113.973C68.9283 113.824 68.9195 113.592 68.9019 113.276C68.8756 113.066 68.8449 112.689 68.8099 112.145C68.7309 110.803 68.6915 109.79 68.6915 109.106C68.6915 108.861 68.6959 108.637 68.7046 108.435L68.7178 107.764C68.7178 107.475 68.7046 107.234 68.6783 107.041C68.538 107.076 68.4372 107.093 68.3758 107.093C68.1653 107.093 68.0601 106.988 68.0601 106.778C68.0601 106.673 68.1258 106.58 68.2574 106.502C68.3889 106.423 68.5555 106.366 68.7572 106.331C69.108 106.26 69.4194 106.225 69.6912 106.225C69.7964 106.225 69.8841 106.265 69.9543 106.344C70.0332 106.414 70.0727 106.497 70.0727 106.594C70.0727 106.69 70.042 106.773 69.9806 106.844C69.928 106.914 69.8578 106.949 69.7701 106.949C69.7175 106.949 69.6737 106.944 69.6386 106.936H69.5334C69.4457 106.936 69.3799 106.958 69.336 107.001C69.301 107.036 69.2834 107.107 69.2834 107.212C69.2834 108.063 69.336 109.343 69.4413 111.053C69.4588 111.369 69.4939 111.833 69.5465 112.447C69.5904 112.851 69.6123 113.263 69.6123 113.684V114.184C69.6649 114.175 69.7526 114.171 69.8754 114.171C70.2437 114.171 70.4279 114.324 70.4279 114.631V114.71L70.099 114.934C70.0902 114.934 70.0595 114.938 70.0069 114.947C69.9631 114.947 69.8754 114.947 69.7438 114.947C69.4632 114.964 69.2834 114.973 69.2045 114.973ZM76.4013 115.026C76.2961 115.026 76.2172 114.999 76.1645 114.947C76.1119 114.885 76.0725 114.784 76.0461 114.644L75.9672 114.394V114.368V114.328C75.9672 114.039 75.6647 113.052 75.0596 111.369C74.4632 109.685 73.9941 108.44 73.652 107.633V114.25L73.7047 114.342C73.7134 114.359 73.731 114.39 73.7573 114.434C73.7836 114.478 73.7967 114.521 73.7967 114.565C73.7967 114.679 73.7573 114.776 73.6783 114.855C73.5994 114.934 73.503 114.973 73.3889 114.973C73.1083 114.973 72.968 114.706 72.968 114.171L72.9548 111.921C72.9461 111.246 72.9417 110.492 72.9417 109.659C72.9417 109.378 72.9548 108.97 72.9812 108.435C73.0075 107.883 73.0206 107.475 73.0206 107.212C73.0206 106.8 73.1785 106.475 73.4942 106.238V106.317C73.5468 106.3 73.5819 106.291 73.5994 106.291C73.8011 106.291 74.0554 106.642 74.3624 107.343C74.6079 107.905 74.8272 108.497 75.0201 109.119C75.2218 109.742 75.4849 110.628 75.8094 111.776L75.9409 112.25C76.1426 112.96 76.2961 113.469 76.4013 113.776C76.5767 111.89 76.6644 109.663 76.6644 107.093V106.922C76.6556 106.87 76.6513 106.813 76.6513 106.751C76.6513 106.488 76.7565 106.357 76.967 106.357C77.0897 106.357 77.1818 106.405 77.2432 106.502C77.3134 106.598 77.3484 106.721 77.3484 106.87V107.856C77.3309 109.207 77.2783 110.671 77.1906 112.25C77.1029 113.829 76.9977 114.719 76.8749 114.92C76.6206 114.991 76.4627 115.026 76.4013 115.026ZM84.3882 115.078C84.2742 114.613 84.2172 113.969 84.2172 113.145L84.2435 111.974C84.2611 111.623 84.2698 111.233 84.2698 110.803C84.2172 110.68 84.1909 110.571 84.1909 110.474V110.435C84.2786 110.268 84.3225 109.891 84.3225 109.303L84.3356 108.698C84.3444 108.505 84.3488 108.291 84.3488 108.054C84.3488 107.536 84.3137 107.129 84.2435 106.83C84.2698 106.708 84.3137 106.602 84.3751 106.515C84.4365 106.418 84.511 106.37 84.5987 106.37H85.1775C85.4231 106.37 85.6379 106.427 85.8221 106.541C86.0062 106.646 86.1465 106.8 86.243 107.001C86.4184 107.361 86.5061 107.786 86.5061 108.277C86.5061 108.628 86.5017 108.904 86.4929 109.106C86.4754 109.36 86.4316 109.593 86.3614 109.803C86.3351 109.917 86.2956 110.014 86.243 110.093C86.1992 110.163 86.1334 110.251 86.0457 110.356C85.9229 110.505 85.7212 110.645 85.4406 110.777C85.3266 110.838 85.1775 110.895 84.9933 110.948V112.355L85.0196 113.197L85.046 113.605C85.081 114.096 85.0986 114.513 85.0986 114.855C85.0986 114.96 85.0547 115.048 84.967 115.118C84.8793 115.197 84.7785 115.236 84.6645 115.236L84.3882 115.078ZM85.0065 110.408C85.5239 110.329 85.7826 109.588 85.7826 108.185C85.7826 107.931 85.7695 107.734 85.7431 107.593C85.7168 107.488 85.6818 107.405 85.6379 107.343C85.5941 107.273 85.5283 107.216 85.4406 107.172C85.3441 107.12 85.2389 107.093 85.1249 107.093C85.1249 107.085 85.0767 107.08 84.9802 107.08V107.83C84.9802 108.348 84.9846 108.808 84.9933 109.211C84.9933 109.667 84.9977 109.966 85.0065 110.106V110.382V110.408ZM91.6859 115.105C91.4842 115.105 91.3351 115.074 91.2386 115.012C91.1422 114.951 91.0939 114.837 91.0939 114.67C91.0939 114.407 91.0501 113.96 90.9624 113.329L90.9098 113.052L89.6075 112.855C89.5549 113.057 89.4803 113.465 89.3838 114.079C89.3312 114.508 89.2479 114.793 89.1339 114.934C89.0725 115.012 88.9848 115.052 88.8708 115.052C88.7656 115.052 88.6691 115.021 88.5814 114.96C88.4937 114.89 88.4499 114.806 88.4499 114.71L88.4762 114.644L88.4893 114.592C89.0681 112.338 89.5066 110.115 89.8048 107.922C89.8048 107.887 89.8092 107.83 89.8179 107.751C89.8267 107.664 89.8355 107.541 89.8442 107.383C89.8706 107.058 89.8969 106.8 89.9232 106.607C89.9583 106.414 90.0109 106.269 90.081 106.173H90.5283C90.6511 106.173 90.7563 106.203 90.844 106.265C90.9317 106.317 90.9755 106.396 90.9755 106.502C90.9755 107.168 91.0676 108.159 91.2518 109.474C91.4272 110.825 91.5149 111.772 91.5149 112.316C91.5149 112.368 91.5368 112.504 91.5806 112.724C91.6245 112.925 91.6464 113.057 91.6464 113.118C91.6464 113.18 91.6903 113.443 91.778 113.907C91.8569 114.328 91.8963 114.6 91.8963 114.723V114.736C91.8963 114.929 91.8262 115.052 91.6859 115.105ZM90.8177 112.579C90.7914 112.447 90.7782 112.285 90.7782 112.092C90.7782 111.303 90.7081 110.294 90.5677 109.067L90.4362 107.699C90.0591 109.759 89.8004 111.316 89.6601 112.368C89.7916 112.456 90.1775 112.526 90.8177 112.579ZM97.9125 115.026C97.8072 115.026 97.7283 114.999 97.6757 114.947C97.6231 114.885 97.5836 114.784 97.5573 114.644L97.4784 114.394V114.368V114.328C97.4784 114.039 97.1758 113.052 96.5707 111.369C95.9744 109.685 95.5052 108.44 95.1632 107.633V114.25L95.2158 114.342C95.2246 114.359 95.2421 114.39 95.2684 114.434C95.2947 114.478 95.3079 114.521 95.3079 114.565C95.3079 114.679 95.2684 114.776 95.1895 114.855C95.1106 114.934 95.0141 114.973 94.9001 114.973C94.6195 114.973 94.4791 114.706 94.4791 114.171L94.466 111.921C94.4572 111.246 94.4528 110.492 94.4528 109.659C94.4528 109.378 94.466 108.97 94.4923 108.435C94.5186 107.883 94.5318 107.475 94.5318 107.212C94.5318 106.8 94.6896 106.475 95.0053 106.238V106.317C95.0579 106.3 95.093 106.291 95.1106 106.291C95.3123 106.291 95.5666 106.642 95.8735 107.343C96.1191 107.905 96.3383 108.497 96.5312 109.119C96.7329 109.742 96.996 110.628 97.3205 111.776L97.452 112.25C97.6537 112.96 97.8072 113.469 97.9125 113.776C98.0878 111.89 98.1755 109.663 98.1755 107.093V106.922C98.1668 106.87 98.1624 106.813 98.1624 106.751C98.1624 106.488 98.2676 106.357 98.4781 106.357C98.6009 106.357 98.693 106.405 98.7543 106.502C98.8245 106.598 98.8596 106.721 98.8596 106.87V107.856C98.842 109.207 98.7894 110.671 98.7017 112.25C98.614 113.829 98.5088 114.719 98.386 114.92C98.1317 114.991 97.9738 115.026 97.9125 115.026ZM102.517 115.157C102.403 115.157 102.298 115.118 102.201 115.039C102.114 114.96 102.065 114.863 102.057 114.749V114.407V114.144C102.048 114.065 102.043 113.973 102.043 113.868C102.043 113.684 102.03 113.403 102.004 113.026L101.978 112.184C101.978 111.755 101.991 111.114 102.017 110.264C102.052 109.501 102.07 108.861 102.07 108.343C102.07 108.22 102.057 108.036 102.03 107.791C102.004 107.536 101.991 107.352 101.991 107.238C101.991 106.616 102.175 106.304 102.543 106.304C102.833 106.304 103.166 106.361 103.543 106.475C103.929 106.589 104.122 106.725 104.122 106.883C104.122 106.971 104.082 107.054 104.003 107.133C103.933 107.203 103.846 107.26 103.74 107.304C103.372 107.172 103.039 107.085 102.741 107.041C102.749 107.172 102.754 107.361 102.754 107.607C102.754 107.957 102.749 108.273 102.741 108.554C102.714 108.975 102.701 109.29 102.701 109.501L102.741 109.711L102.951 109.698C103.021 109.689 103.109 109.685 103.214 109.685C103.635 109.685 103.846 109.808 103.846 110.053C103.846 110.15 103.806 110.233 103.727 110.303C103.648 110.365 103.547 110.395 103.425 110.395C103.267 110.395 103.144 110.386 103.056 110.369H102.727C102.745 110.597 102.754 110.93 102.754 111.369C102.754 111.807 102.749 112.202 102.741 112.553C102.714 113.088 102.701 113.487 102.701 113.75C102.701 114.241 102.71 114.486 102.727 114.486L103.161 114.473C103.311 114.464 103.49 114.46 103.701 114.46C104.034 114.46 104.201 114.565 104.201 114.776C104.201 114.898 104.144 114.991 104.03 115.052C103.924 115.122 103.793 115.157 103.635 115.157H102.517ZM108.972 115.197C108.656 115.091 108.266 115.039 107.801 115.039C107.661 115.126 107.512 115.17 107.354 115.17C107.249 115.17 107.156 115.122 107.078 115.026C107.007 114.938 106.972 114.841 106.972 114.736C106.972 114 107.003 113.017 107.064 111.79C107.117 110.483 107.143 109.505 107.143 108.856V108.764C107.091 108.212 107.064 107.799 107.064 107.528C107.064 106.694 107.218 106.278 107.525 106.278C107.612 106.278 107.687 106.313 107.748 106.383C107.819 106.445 107.854 106.519 107.854 106.607C107.854 106.712 107.84 106.879 107.814 107.107C107.788 107.326 107.775 107.493 107.775 107.607C107.775 108.194 107.779 108.725 107.788 109.198C107.797 109.663 107.801 110.189 107.801 110.777C107.757 110.908 107.735 111.092 107.735 111.329V111.487L107.709 112.526C107.691 112.833 107.683 113.184 107.683 113.579C107.683 114.184 107.827 114.486 108.117 114.486C108.134 114.486 108.161 114.486 108.196 114.486C108.239 114.478 108.296 114.473 108.367 114.473C108.446 114.464 108.546 114.46 108.669 114.46C109.143 114.46 109.38 114.592 109.38 114.855C109.38 114.942 109.34 115.017 109.261 115.078C109.182 115.14 109.086 115.179 108.972 115.197Z" fill="white"/>
</g>
<defs>
<filter id="filter0_d" x="0.396811" y="51.9008" width="156.673" height="58.007" filterUnits="userSpaceOnUse" color-interpolation-filters="sRGB">
<feFlood flood-opacity="0" result="BackgroundImageFix"/>
<feColorMatrix in="SourceAlpha" type="matrix" values="0 0 0 0 0 0 0 0 0 0 0 0 0 0 0 0 0 0 127 0"/>
<feOffset/>
<feGaussianBlur stdDeviation="8.09505"/>
<feColorMatrix type="matrix" values="0 0 0 0 0 0 0 0 0 0 0 0 0 0 0 0 0 0 0.25 0"/>
<feBlend mode="normal" in2="BackgroundImageFix" result="effect1_dropShadow"/>
<feBlend mode="normal" in="SourceGraphic" in2="effect1_dropShadow" result="shape"/>
</filter>
<filter id="filter1_d" x="40.5545" y="0.809896" width="75.3851" height="75.3851" filterUnits="userSpaceOnUse" color-interpolation-filters="sRGB">
<feFlood flood-opacity="0" result="BackgroundImageFix"/>
<feColorMatrix in="SourceAlpha" type="matrix" values="0 0 0 0 0 0 0 0 0 0 0 0 0 0 0 0 0 0 127 0"/>
<feOffset/>
<feGaussianBlur stdDeviation="8.09505"/>
<feColorMatrix type="matrix" values="0 0 0 0 0 0 0 0 0 0 0 0 0 0 0 0 0 0 0.25 0"/>
<feBlend mode="normal" in2="BackgroundImageFix" result="effect1_dropShadow"/>
<feBlend mode="normal" in="SourceGraphic" in2="effect1_dropShadow" result="shape"/>
</filter>
<filter id="filter2_d" x="31.37" y="88.8908" width="94.1997" height="42.9695" filterUnits="userSpaceOnUse" color-interpolation-filters="sRGB">
<feFlood flood-opacity="0" result="BackgroundImageFix"/>
<feColorMatrix in="SourceAlpha" type="matrix" values="0 0 0 0 0 0 0 0 0 0 0 0 0 0 0 0 0 0 127 0"/>
<feOffset/>
<feGaussianBlur stdDeviation="8.09505"/>
<feColorMatrix type="matrix" values="0 0 0 0 0 0 0 0 0 0 0 0 0 0 0 0 0 0 0.25 0"/>
<feBlend mode="normal" in2="BackgroundImageFix" result="effect1_dropShadow"/>
<feBlend mode="normal" in="SourceGraphic" in2="effect1_dropShadow" result="shape"/>
</filter>
</defs>
</svg>
